<svg width="1360" height="1600" viewBox="0 0 680 800" xmlns="http://www.w3.org/2000/svg">
<style>
.ser{font-family:Georgia,'Times New Roman',serif;}
.san{font-family:'Segoe UI',Arial,sans-serif;}
</style>

<rect x="0" y="0" width="680" height="800" fill="#0C044D"/>
<rect x="0" y="0" width="680" height="10" fill="#CA041A"/>
<rect x="0" y="790" width="680" height="10" fill="#CA041A"/>

<circle cx="46" cy="70" r="6" fill="#F5F0E8" opacity="0.5"/>
<circle cx="636" cy="58" r="7" fill="#CA041A"/>
<circle cx="92" cy="34" r="4" fill="#E9B949"/>
<circle cx="598" cy="96" r="5" fill="#F5F0E8" opacity="0.4"/>
<circle cx="652" cy="150" r="5" fill="#E9B949"/>
<circle cx="30" cy="150" r="5" fill="#CA041A"/>
<circle cx="40" cy="240" r="4" fill="#F5F0E8" opacity="0.35"/>
<circle cx="644" cy="240" r="4" fill="#F5F0E8" opacity="0.35"/>

<text class="san" x="340" y="62" text-anchor="middle" fill="#E9B949" font-size="15" font-weight="600" letter-spacing="5">DAYSTON CONSULTORES</text>

<text class="ser" x="340" y="142" text-anchor="middle" fill="#F5F0E8" font-size="60" font-weight="700">Quiniela</text>
<text class="ser" x="340" y="206" text-anchor="middle" fill="#F5F0E8" font-size="60" font-weight="700">Mundial 2026</text>
<rect x="300" y="224" width="80" height="6" rx="3" fill="#CA041A"/>
<text class="san" x="340" y="262" text-anchor="middle" fill="#F5F0E8" font-size="16" opacity="0.85">48 equipos · 12 grupos · un solo campeón</text>

<rect x="50" y="286" width="580" height="92" rx="16" fill="#CA041A"/>
<text class="san" x="340" y="322" text-anchor="middle" fill="#FFFFFF" font-size="20" font-weight="600">Regístrate y haz tus pronósticos</text>
<text class="san" x="340" y="352" text-anchor="middle" fill="#FFFFFF" font-size="17">quiniela-mundial-2026-olive-seven.vercel.app</text>

<rect x="50" y="396" width="180" height="66" rx="12" fill="#F5F0E8"/>
<text class="san" x="140" y="421" text-anchor="middle" fill="#0C044D" font-size="13" opacity="0.7">Cuota</text>
<text class="ser" x="140" y="448" text-anchor="middle" fill="#CA041A" font-size="24" font-weight="700">$350 MXN</text>

<rect x="250" y="396" width="180" height="66" rx="12" fill="#F5F0E8"/>
<text class="san" x="340" y="421" text-anchor="middle" fill="#0C044D" font-size="13" opacity="0.7">Premios del pozo</text>
<text class="ser" x="340" y="448" text-anchor="middle" fill="#0C044D" font-size="24" font-weight="700">60 / 25 / 15</text>

<rect x="450" y="396" width="180" height="66" rx="12" fill="#F5F0E8"/>
<text class="san" x="540" y="421" text-anchor="middle" fill="#0C044D" font-size="13" opacity="0.7">Duración</text>
<text class="ser" x="540" y="448" text-anchor="middle" fill="#0C044D" font-size="22" font-weight="700">11 jun – 19 jul</text>

<rect x="50" y="478" width="580" height="118" rx="14" fill="#F5F0E8"/>
<text class="san" x="74" y="508" fill="#0C044D" font-size="17" font-weight="600">Predicciones del torneo · una sola vez</text>
<text class="san" x="74" y="534" fill="#CA041A" font-size="14" font-weight="600">Cierran: jueves 11 de junio, 12:30 PM (CDMX)</text>
<text class="san" x="74" y="560" fill="#0C044D" font-size="14">Campeón 25 · Subcampeón 15 · 3.º 8 · 4.º 5 pts</text>
<text class="san" x="74" y="582" fill="#0C044D" font-size="14">Ganador de cada grupo 3 c/u · Comodín 10 pts</text>

<rect x="50" y="610" width="580" height="96" rx="14" fill="#F5F0E8"/>
<text class="san" x="74" y="640" fill="#0C044D" font-size="17" font-weight="600">Pronósticos por partido · toda la fase de grupos</text>
<text class="san" x="74" y="666" fill="#CA041A" font-size="14" font-weight="600">Cada partido cierra 30 min antes de empezar</text>
<text class="san" x="74" y="688" fill="#0C044D" font-size="14">Marcador exacto 5 pts · Solo el resultado 2 pts</text>

<text class="san" x="340" y="748" text-anchor="middle" fill="#F5F0E8" font-size="15" opacity="0.85">Tabla de posiciones en vivo:  …/tabla</text>
<text class="san" x="340" y="772" text-anchor="middle" fill="#E9B949" font-size="14" font-weight="600">¡Suerte y que gane el mejor pronóstico!</text>
</svg>
